<svg width="129" height="32" viewBox="0 0 129 32" fill="none" xmlns="http://www.w3.org/2000/svg">
<path d="M6.24 27.28V25.288C2.904 25.048 0.768 23.104 0.696 20.176H3.768C3.792 21.544 4.68 22.408 6.24 22.6V17.488L5.472 17.32C2.448 16.672 0.936 14.992 0.936 12.352C0.936 9.544 3.048 7.528 6.24 7.192V5.152H8.088V7.192C11.112 7.504 12.984 9.4 13.08 12.28H10.104C10.056 10.984 9.336 10.144 8.088 9.88V15.04L8.904 15.232C11.976 15.904 13.368 17.392 13.368 19.936C13.368 22.864 11.304 24.88 8.088 25.24V27.28H6.24ZM6.144 14.608L6.24 14.632V9.856C4.8 10.096 3.936 10.96 3.936 12.256C3.936 13.528 4.608 14.272 6.144 14.608ZM8.256 17.92L8.088 17.872V22.552C9.528 22.264 10.392 21.424 10.392 20.2C10.392 18.976 9.696 18.232 8.256 17.92ZM27.4751 24.976L15.3071 25V22.696L21.0431 17.848C23.4191 15.832 24.2111 14.68 24.2111 13C24.2111 11.008 23.1311 9.88 21.2831 9.88C19.3631 9.88 18.1631 11.224 18.1391 13.48H15.0911C15.1151 9.64 17.5631 7.144 21.2831 7.144C25.0271 7.144 27.3551 9.28 27.3551 12.832C27.3551 15.28 26.0111 17.128 23.3471 19.408L20.1791 22.12H27.4751V24.976ZM31.8639 12.616L35.6559 7.456H39.1599L34.9599 13.048C35.3919 12.928 35.8479 12.856 36.2799 12.856C39.9039 12.856 42.3519 15.4 42.3519 18.952C42.3519 22.696 39.5679 25.312 35.8239 25.312C32.0319 25.312 29.1999 22.528 29.1999 18.928C29.1999 16.816 29.8959 15.28 31.8639 12.616ZM32.3439 18.952C32.3439 21.088 33.7599 22.576 35.8239 22.576C37.8159 22.576 39.2559 21.088 39.2559 18.952C39.2559 16.84 37.8399 15.376 35.8239 15.376C33.7359 15.376 32.3439 16.84 32.3439 18.952ZM44.2508 16.264C44.2508 10.816 47.1788 7.12 51.6668 7.12C56.1548 7.12 59.1068 10.816 59.1068 16.264C59.1068 21.688 56.3228 25.312 51.6668 25.312C47.0108 25.312 44.2508 21.688 44.2508 16.264ZM47.2748 16.264C47.2748 20.32 48.9068 22.6 51.6668 22.6C54.4508 22.6 56.0828 20.32 56.0828 16.264C56.0828 12.112 54.4508 9.832 51.6668 9.832C48.9068 9.832 47.2748 12.112 47.2748 16.264Z" fill="black" fill-opacity="0.4"/>
<path d="M0 17.8H60.1388V19H0V17.8Z" fill="black" fill-opacity="0.4"/>
<rect x="71" y="2" width="58" height="28" rx="14" fill="#FF3333" fill-opacity="0.1"/>
<path d="M85.256 18.324V17.316H88.916V18.324H85.256ZM95.3728 20.988L89.5168 21V20.1L92.3128 17.688C93.7168 16.476 94.1128 15.888 94.1128 14.964C94.1128 13.872 93.4888 13.224 92.4448 13.224C91.3768 13.224 90.6808 14.004 90.6568 15.24H89.4808C89.5168 13.38 90.6928 12.168 92.4568 12.168C94.1968 12.168 95.3128 13.224 95.3128 14.892C95.3128 16.128 94.7008 17.004 93.1648 18.336L91.3648 19.896H95.3728V20.988ZM96.4552 16.668C96.4552 13.98 97.8472 12.156 100.031 12.156C102.203 12.156 103.595 13.98 103.595 16.668C103.595 19.368 102.263 21.156 100.031 21.156C97.7872 21.156 96.4552 19.368 96.4552 16.668ZM97.6192 16.668C97.6192 18.804 98.5072 20.1 100.031 20.1C101.555 20.1 102.431 18.804 102.431 16.668C102.431 14.508 101.555 13.212 100.031 13.212C98.5072 13.212 97.6192 14.508 97.6192 16.668ZM109.072 14.376C109.072 15.66 108.16 16.584 106.876 16.584C105.604 16.584 104.692 15.66 104.692 14.376C104.692 13.08 105.604 12.156 106.876 12.156C108.16 12.156 109.072 13.08 109.072 14.376ZM113.644 12.336L107.056 21H105.904L112.492 12.336H113.644ZM108.148 14.376C108.148 13.596 107.632 13.056 106.876 13.056C106.132 13.056 105.616 13.596 105.616 14.376C105.616 15.144 106.132 15.684 106.876 15.684C107.62 15.684 108.148 15.144 108.148 14.376ZM114.88 18.948C114.88 20.232 113.956 21.156 112.684 21.156C111.412 21.156 110.488 20.232 110.488 18.948C110.488 17.652 111.412 16.74 112.684 16.74C113.956 16.74 114.88 17.652 114.88 18.948ZM113.944 18.948C113.944 18.168 113.44 17.628 112.684 17.628C111.94 17.628 111.424 18.168 111.424 18.948C111.424 19.716 111.94 20.256 112.684 20.256C113.428 20.256 113.944 19.716 113.944 18.948Z" fill="#FF3333"/>
</svg>
