<svg width="126" height="32" viewBox="0 0 126 32" fill="none" xmlns="http://www.w3.org/2000/svg">
<rect x="68" y="2" width="58" height="28" rx="14" fill="#FF3333" fill-opacity="0.1"/>
<path d="M82.256 18.324V17.316H85.916V18.324H82.256ZM92.3728 20.988L86.5168 21V20.1L89.3128 17.688C90.7168 16.476 91.1128 15.888 91.1128 14.964C91.1128 13.872 90.4888 13.224 89.4448 13.224C88.3768 13.224 87.6808 14.004 87.6568 15.24H86.4808C86.5168 13.38 87.6928 12.168 89.4568 12.168C91.1968 12.168 92.3128 13.224 92.3128 14.892C92.3128 16.128 91.7008 17.004 90.1648 18.336L88.3648 19.896H92.3728V20.988ZM93.4552 16.668C93.4552 13.98 94.8472 12.156 97.0312 12.156C99.2032 12.156 100.595 13.98 100.595 16.668C100.595 19.368 99.2632 21.156 97.0312 21.156C94.7872 21.156 93.4552 19.368 93.4552 16.668ZM94.6192 16.668C94.6192 18.804 95.5072 20.1 97.0312 20.1C98.5552 20.1 99.4312 18.804 99.4312 16.668C99.4312 14.508 98.5552 13.212 97.0312 13.212C95.5072 13.212 94.6192 14.508 94.6192 16.668ZM106.072 14.376C106.072 15.66 105.16 16.584 103.876 16.584C102.604 16.584 101.692 15.66 101.692 14.376C101.692 13.08 102.604 12.156 103.876 12.156C105.16 12.156 106.072 13.08 106.072 14.376ZM110.644 12.336L104.056 21H102.904L109.492 12.336H110.644ZM105.148 14.376C105.148 13.596 104.632 13.056 103.876 13.056C103.132 13.056 102.616 13.596 102.616 14.376C102.616 15.144 103.132 15.684 103.876 15.684C104.62 15.684 105.148 15.144 105.148 14.376ZM111.88 18.948C111.88 20.232 110.956 21.156 109.684 21.156C108.412 21.156 107.488 20.232 107.488 18.948C107.488 17.652 108.412 16.74 109.684 16.74C110.956 16.74 111.88 17.652 111.88 18.948ZM110.944 18.948C110.944 18.168 110.44 17.628 109.684 17.628C108.94 17.628 108.424 18.168 108.424 18.948C108.424 19.716 108.94 20.256 109.684 20.256C110.428 20.256 110.944 19.716 110.944 18.948Z" fill="#FF3333"/>
<path d="M6.24 27.28V25.288C2.904 25.048 0.768 23.104 0.696 20.176H3.768C3.792 21.544 4.68 22.408 6.24 22.6V17.488L5.472 17.32C2.448 16.672 0.936 14.992 0.936 12.352C0.936 9.544 3.048 7.528 6.24 7.192V5.152H8.088V7.192C11.112 7.504 12.984 9.4 13.08 12.28H10.104C10.056 10.984 9.336 10.144 8.088 9.88V15.04L8.904 15.232C11.976 15.904 13.368 17.392 13.368 19.936C13.368 22.864 11.304 24.88 8.088 25.24V27.28H6.24ZM6.144 14.608L6.24 14.632V9.856C4.8 10.096 3.936 10.96 3.936 12.256C3.936 13.528 4.608 14.272 6.144 14.608ZM8.256 17.92L8.088 17.872V22.552C9.528 22.264 10.392 21.424 10.392 20.2C10.392 18.976 9.696 18.232 8.256 17.92ZM27.4751 24.976L15.3071 25V22.696L21.0431 17.848C23.4191 15.832 24.2111 14.68 24.2111 13C24.2111 11.008 23.1311 9.88 21.2831 9.88C19.3631 9.88 18.1631 11.224 18.1391 13.48H15.0911C15.1151 9.64 17.5631 7.144 21.2831 7.144C25.0271 7.144 27.3551 9.28 27.3551 12.832C27.3551 15.28 26.0111 17.128 23.3471 19.408L20.1791 22.12H27.4751V24.976ZM34.716 16.312H32.58V14.32L37.092 10.168H29.796V7.456H40.932V9.904L36.66 13.84C39.348 14.368 41.436 16.336 41.436 19.432C41.436 23.032 38.628 25.312 35.076 25.312C31.644 25.312 28.98 23.2 28.98 19.408H32.004C32.004 21.424 33.252 22.576 35.124 22.576C37.044 22.576 38.316 21.328 38.316 19.384C38.316 17.608 37.164 16.312 34.716 16.312ZM55.1314 24.976L42.9634 25V22.696L48.6994 17.848C51.0754 15.832 51.8674 14.68 51.8674 13C51.8674 11.008 50.7874 9.88 48.9394 9.88C47.0194 9.88 45.8194 11.224 45.7954 13.48H42.7474C42.7714 9.64 45.2194 7.144 48.9394 7.144C52.6834 7.144 55.0114 9.28 55.0114 12.832C55.0114 15.28 53.6674 17.128 51.0034 19.408L47.8354 22.12H55.1314V24.976Z" fill="black" fill-opacity="0.4"/>
<path d="M0 17.8H55.9954V19H0V17.8Z" fill="black" fill-opacity="0.4"/>
</svg>
