<svg width="124" height="32" viewBox="0 0 124 32" fill="none" xmlns="http://www.w3.org/2000/svg">
<path d="M6.24 27.28V25.288C2.904 25.048 0.768 23.104 0.696 20.176H3.768C3.792 21.544 4.68 22.408 6.24 22.6V17.488L5.472 17.32C2.448 16.672 0.936 14.992 0.936 12.352C0.936 9.544 3.048 7.528 6.24 7.192V5.152H8.088V7.192C11.112 7.504 12.984 9.4 13.08 12.28H10.104C10.056 10.984 9.336 10.144 8.088 9.88V15.04L8.904 15.232C11.976 15.904 13.368 17.392 13.368 19.936C13.368 22.864 11.304 24.88 8.088 25.24V27.28H6.24ZM6.144 14.608L6.24 14.632V9.856C4.8 10.096 3.936 10.96 3.936 12.256C3.936 13.528 4.608 14.272 6.144 14.608ZM8.256 17.92L8.088 17.872V22.552C9.528 22.264 10.392 21.424 10.392 20.2C10.392 18.976 9.696 18.232 8.256 17.92ZM18.8591 10.216H15.0191V7.456H21.8111V25H18.8591V10.216ZM27.2936 12.616L31.0856 7.456H34.5896L30.3896 13.048C30.8216 12.928 31.2776 12.856 31.7096 12.856C35.3336 12.856 37.7816 15.4 37.7816 18.952C37.7816 22.696 34.9976 25.312 31.2536 25.312C27.4616 25.312 24.6296 22.528 24.6296 18.928C24.6296 16.816 25.3256 15.28 27.2936 12.616ZM27.7736 18.952C27.7736 21.088 29.1896 22.576 31.2536 22.576C33.2456 22.576 34.6856 21.088 34.6856 18.952C34.6856 16.84 33.2696 15.376 31.2536 15.376C29.1656 15.376 27.7736 16.84 27.7736 18.952ZM39.6804 16.264C39.6804 10.816 42.6084 7.12 47.0964 7.12C51.5844 7.12 54.5364 10.816 54.5364 16.264C54.5364 21.688 51.7524 25.312 47.0964 25.312C42.4404 25.312 39.6804 21.688 39.6804 16.264ZM42.7044 16.264C42.7044 20.32 44.3364 22.6 47.0964 22.6C49.8804 22.6 51.5124 20.32 51.5124 16.264C51.5124 12.112 49.8804 9.832 47.0964 9.832C44.3364 9.832 42.7044 12.112 42.7044 16.264Z" fill="black" fill-opacity="0.4"/>
<path d="M0 17.8H55.5684V19H0V17.8Z" fill="black" fill-opacity="0.4"/>
<rect x="66" y="2" width="58" height="28" rx="14" fill="#FF3333" fill-opacity="0.1"/>
<path d="M79.756 18.324V17.316H83.416V18.324H79.756ZM87.2868 16.512H86.4228V15.732L88.8828 13.368H84.9828V12.324H90.3708V13.272L87.9948 15.54C89.4708 15.72 90.5868 16.716 90.5868 18.276C90.5868 20.028 89.2668 21.144 87.5028 21.144C85.7988 21.144 84.5748 20.1 84.5748 18.3H85.7388C85.7388 19.428 86.4348 20.088 87.5268 20.088C88.6548 20.088 89.3868 19.368 89.3868 18.252C89.3868 17.208 88.6668 16.512 87.2868 16.512ZM91.6232 16.668C91.6232 13.98 93.0152 12.156 95.1992 12.156C97.3712 12.156 98.7632 13.98 98.7632 16.668C98.7632 19.368 97.4312 21.156 95.1992 21.156C92.9552 21.156 91.6232 19.368 91.6232 16.668ZM92.7872 16.668C92.7872 18.804 93.6752 20.1 95.1992 20.1C96.7232 20.1 97.5992 18.804 97.5992 16.668C97.5992 14.508 96.7232 13.212 95.1992 13.212C93.6752 13.212 92.7872 14.508 92.7872 16.668ZM104.239 14.376C104.239 15.66 103.327 16.584 102.043 16.584C100.771 16.584 99.8595 15.66 99.8595 14.376C99.8595 13.08 100.771 12.156 102.043 12.156C103.327 12.156 104.239 13.08 104.239 14.376ZM108.811 12.336L102.223 21H101.071L107.659 12.336H108.811ZM103.315 14.376C103.315 13.596 102.799 13.056 102.043 13.056C101.299 13.056 100.783 13.596 100.783 14.376C100.783 15.144 101.299 15.684 102.043 15.684C102.787 15.684 103.315 15.144 103.315 14.376ZM110.047 18.948C110.047 20.232 109.123 21.156 107.851 21.156C106.579 21.156 105.655 20.232 105.655 18.948C105.655 17.652 106.579 16.74 107.851 16.74C109.123 16.74 110.047 17.652 110.047 18.948ZM109.111 18.948C109.111 18.168 108.607 17.628 107.851 17.628C107.107 17.628 106.591 18.168 106.591 18.948C106.591 19.716 107.107 20.256 107.851 20.256C108.595 20.256 109.111 19.716 109.111 18.948Z" fill="#FF3333"/>
</svg>
