<svg width="626" height="38" viewBox="0 0 626 38" fill="none" xmlns="http://www.w3.org/2000/svg">
<path fill-rule="evenodd" clip-rule="evenodd" d="M150.179 2.65566H166.482V5.25336C166.008 5.09436 165.512 5.0124 165.013 5.01061H155.642V17.1491H164.758C165.413 17.1491 165.996 17.0772 166.481 16.9548V19.5411C166.068 19.4443 165.499 19.3952 164.794 19.3952H155.642V31.9466H164.733C165.232 31.9466 165.826 31.874 166.481 31.7159V34.508H150.203C150.333 34.017 150.399 33.511 150.398 33.003V4.19691C150.398 3.56617 150.325 3.04435 150.179 2.65566ZM146.405 10.9222L141.695 10.8866C141.464 8.23976 139.947 5.67765 136.609 5.20567C129.459 4.56211 127.444 12.415 127.626 18.1572C127.809 23.6922 128.694 32.2015 136.075 32.2015C139.171 32.2015 142.144 29.0207 142.047 26.3383L146.405 26.3027C146.089 31.8377 139.741 35.0419 136.718 35.1516C126.389 35.5039 122.066 28.6206 121.848 18.7993C121.654 9.90346 125.296 2 135.504 2C144.244 2.12173 145.931 7.29294 146.405 10.9222ZM72.9408 30.8901L76.0611 28.2803C77.687 30.9635 79.0225 32.1886 82.2517 32.1886C85.5286 32.1886 88.285 30.1982 88.285 26.6786C88.285 24.9423 87.5802 23.522 86.1849 22.4542C85.5528 21.9559 83.951 21.0945 81.4259 19.8928C77.6507 18.0846 73.9731 15.7289 73.9731 10.9955C73.9731 5.02271 79.0467 2.38869 84.3995 2.19364C87.5681 2.07261 91.5014 3.82174 93.091 5.78728L89.9231 8.22695C89.3581 7.17255 88.5181 6.29083 87.4923 5.6754C86.4665 5.05998 85.2932 4.73381 84.0969 4.73154C80.0541 4.73154 76.8498 9.41724 80.2 12.6464C81.0493 13.4715 82.7863 14.4909 85.4324 15.7047C89.6561 17.6838 93.2612 20.0501 93.2612 25.2825C93.2612 27.0908 92.7878 28.7779 91.853 30.3199C89.9722 33.4273 86.8278 34.9814 82.4339 34.9814C77.3838 34.9814 76.3892 33.8281 72.9408 30.8901ZM28.4893 2.65566H44.7782V5.25336C44.3051 5.09442 43.8094 5.01246 43.3103 5.01061H33.9396V17.1491H43.0554C43.7111 17.1491 44.2941 17.0772 44.7789 16.9548V19.5411C44.366 19.4443 43.7958 19.3952 43.1046 19.3952H33.9396V31.9466H43.0312C43.5289 31.9466 44.124 31.874 44.7789 31.7159V34.508H28.5143C28.6332 34.0151 28.6941 33.5101 28.6958 33.003V4.19691C28.6958 3.56617 28.6225 3.04435 28.4893 2.65566ZM0 2.65566H5.92368V2.94753C5.92368 3.21449 6.0084 3.56617 6.15434 4.01538L14.5049 29.1545L23.0754 3.90574C23.2085 3.48145 23.2818 3.06856 23.2818 2.65566H26.1586C25.8674 3.16537 25.6489 3.61529 25.515 4.01538L15.7308 33.2095C15.6339 33.4886 15.5492 33.9257 15.4766 34.5087H10.6208C10.5474 34.0674 10.4379 33.6329 10.2933 33.2095L0.704065 4.24603C0.482555 3.71187 0.251627 3.18166 0.0113903 2.65566H0ZM62.9145 19.262C66.7986 18.4968 69.7729 15.5232 69.7729 11.2746C69.7729 5.70186 65.1114 2.65494 59.8918 2.65494H50.3509C50.4841 3.14117 50.5574 3.65089 50.5574 4.18481V32.9774C50.5574 33.5968 50.4841 34.1186 50.3509 34.5073H56.0319C55.8929 34.0093 55.8235 33.4944 55.8254 32.9774V19.7476L57.6457 19.9419L67.1631 34.5073H72.8803L62.9145 19.262ZM61.9314 16.8345C60.8998 17.562 59.6611 17.9258 58.2409 17.9258H55.8133V4.97572H57.986C59.8441 4.97572 61.2878 5.43632 62.32 6.35822C63.7282 7.63394 64.4443 9.35744 64.4443 11.518C64.4443 13.8488 63.6064 15.6214 61.9314 16.8352M120.901 33.1853L110.293 3.71211C110.175 3.37134 110.105 3.01572 110.086 2.65566H105.497C105.497 3.03225 105.436 3.43233 105.29 3.83313L95.0096 33.1853C94.875 33.6089 94.6572 34.0467 94.366 34.508H97.3275C97.3161 34.0225 97.3766 33.5733 97.5105 33.1853L100.556 24.5294H112.27L115.281 33.186C115.439 33.658 115.511 34.0951 115.511 34.508H121.654C121.301 34.0104 121.047 33.5612 120.901 33.1853ZM101.358 22.1865L106.31 7.80266L111.397 22.1865H101.358Z" fill="white"/>
<g clip-path="url(#clip0_8214_36)">
<path d="M358.814 36.8682L345.332 0.0322557L345.323 0.00787354H345.057L342.28 7.57753L337.226 21.3583L337.214 21.3474C335.462 19.8135 332.991 18.8546 329.878 18.4976L328.929 18.4003L329.871 18.2805C335.004 17.3652 338.454 14.1482 338.454 10.2723C338.454 4.95736 333.416 1.24757 326.201 1.24757H311.187V1.51668H315.549V28.98L304.954 0.0321654L304.945 0.00787354H304.679L301.902 7.57753L291.194 36.7734L291.128 36.781C290.945 36.8034 290.764 36.8212 290.585 36.8346C290.316 36.8556 290.048 36.8681 289.779 36.8681H278.959L299.527 1.51659L299.679 1.25091H274.525V12.1867H274.792C274.839 6.86007 277.965 1.51659 284.872 1.51659H293.204L272.482 37.133H300.399V26.6557H300.132C300.096 31.2985 297.444 35.7082 291.676 36.7039L291.493 36.7349L295.885 24.7547H308.189L312.623 36.8682H308.249V37.1331H325.415V36.8682H321.023V18.5956H326.091C331.248 18.5956 334.206 20.8821 334.206 24.8669V28.1082C334.206 28.4653 334.231 28.9875 334.258 29.4242V29.4401L331.534 36.8665H327.975V37.1314H335.341V36.8665H331.821L334.302 30.104C334.307 30.1694 334.309 30.2088 334.309 30.2088L334.378 30.8181L334.444 31.2212C334.857 33.7149 335.819 35.548 337.299 36.6695L337.512 36.8229C338.637 37.5991 340.035 37.9922 341.67 37.9922C343.834 37.9922 345.278 37.4566 346.47 36.196L346.313 36.0501C345.215 37.0559 344.294 37.4633 343.139 37.4633C341.172 37.4633 340.142 35.0954 340.142 32.7602V28.2188C340.153 27.092 339.975 25.9712 339.616 24.9021L339.567 24.7613V24.7563H348.567L353 36.8699H348.627V37.1347H363.482V36.8699L358.814 36.8682ZM295.983 24.4898L302.044 7.96485L308.092 24.4898H295.983ZM321.025 18.3299V1.51659H324.894C330.061 1.51659 332.79 4.56507 332.79 10.3294C332.79 16.4599 331.224 18.3299 326.091 18.3299H321.025ZM339.462 24.4898L339.436 24.4244C339.036 23.4578 338.454 22.5759 337.721 21.826L337.467 21.5745L337.44 21.5494L342.419 7.96485L348.466 24.4898H339.462Z" fill="white"/>
</g>
<g clip-path="url(#clip1_8214_36)">
<path d="M610.794 12.2934L610.502 12.3855C609.369 10.042 607.749 8.17651 605.644 6.78893C603.571 5.40133 600.964 4.70752 597.822 4.70752C596.073 4.70752 594.405 5.06211 592.818 5.77129C591.231 6.44972 589.838 7.42104 588.64 8.68525C587.474 9.91865 586.534 11.4142 585.822 13.1718C585.109 14.9294 584.753 16.872 584.753 18.9997C584.753 21.1273 585.109 23.0699 585.822 24.8275C586.534 26.5851 587.474 28.096 588.64 29.3603C589.838 30.5937 591.231 31.5496 592.818 32.228C594.405 32.9063 596.073 33.2455 597.822 33.2455C600.931 33.2455 603.458 32.783 605.401 31.8579C607.377 30.9021 609.045 29.4528 610.405 27.5102L610.697 27.6024L610.6 30.5626C609.855 31.3026 608.997 31.9656 608.025 32.5514C607.053 33.1065 606.001 33.5844 604.867 33.9853C603.766 34.3553 602.616 34.6328 601.418 34.8178C600.219 35.0339 599.021 35.1419 597.822 35.1419C595.328 35.1419 592.948 34.7564 590.681 33.9855C588.413 33.2146 586.421 32.1354 584.705 30.7478C582.988 29.3294 581.628 27.6335 580.624 25.66C579.62 23.6558 579.117 21.4356 579.117 18.9996C579.117 16.5636 579.62 14.3589 580.624 12.3855C581.628 10.3812 582.988 8.6698 584.705 7.25142C586.421 5.83298 588.413 4.75374 590.681 4.01369C592.948 3.24279 595.328 2.85734 597.822 2.85734C599.021 2.85734 600.219 2.94984 601.418 3.13486C602.616 3.31987 603.766 3.61281 604.867 4.01369C606.001 4.38372 607.053 4.86167 608.025 5.44757C608.997 6.0026 609.855 6.65013 610.6 7.39017L610.794 12.2934ZM503.734 21.1277C503.378 21.2817 503.038 21.4822 502.713 21.7293C502.389 21.9758 502.227 22.315 502.227 22.7469V28.4359C500.673 30.5636 498.681 32.2133 496.251 33.385C493.822 34.5568 491.134 35.1427 488.186 35.1427C485.693 35.1427 483.312 34.7572 481.045 33.9863C478.777 33.2154 476.785 32.1362 475.069 30.7486C473.352 29.3302 471.992 27.6343 470.988 25.6608C469.984 23.6566 469.482 21.4364 469.482 19.0004C469.482 16.5644 469.984 14.3597 470.988 12.3863C471.992 10.3819 473.352 8.67056 475.069 7.25218C476.785 5.83374 478.777 4.75451 481.045 4.01449C483.312 3.24356 485.693 2.8581 488.186 2.8581C489.385 2.8581 490.583 2.9506 491.782 3.13561C492.98 3.32062 494.13 3.61357 495.231 4.01445C496.365 4.38447 497.417 4.86243 498.389 5.44832C499.361 6.00335 500.219 6.65089 500.964 7.39093L501.159 12.2937L500.867 12.3859C499.734 10.0424 498.114 8.17683 496.009 6.78925C493.936 5.40165 491.329 4.70784 488.187 4.70784C486.438 4.70784 484.77 5.06245 483.183 5.77165C481.596 6.45005 480.203 7.42136 479.004 8.68557C477.838 9.919 476.899 11.4145 476.187 13.1721C475.474 14.9297 475.118 16.8724 475.118 19C475.118 21.0968 475.458 23.024 476.138 24.7816C476.851 26.5392 477.79 28.0501 478.956 29.3144C480.154 30.5478 481.547 31.5191 483.134 32.2283C484.721 32.9067 486.405 33.2459 488.187 33.2459C491.555 33.2459 494.438 32.6292 496.835 31.3958V22.7465C496.835 22.315 496.657 21.9758 496.301 21.7289C495.977 21.4824 495.653 21.2819 495.329 21.1273L495.373 20.8963C495.535 20.9245 495.827 20.9553 496.248 20.9885C496.669 21.0167 497.106 21.0475 497.56 21.0807H501.738C502.127 21.0525 502.499 21.0218 502.856 20.9885C503.212 20.9603 503.487 20.9296 503.681 20.8963L503.734 21.1277ZM538.924 3.82908C538.6 3.98307 538.276 4.18359 537.952 4.43065C537.628 4.67714 537.45 5.13967 537.418 5.81822C537.388 6.55827 537.356 7.49875 537.321 8.63967C537.321 9.74976 537.306 11.014 537.277 12.4323C537.277 13.8508 537.262 15.3926 537.232 17.0577V22.2381C537.203 24.2423 536.943 25.9537 536.455 27.3721C535.969 28.7905 535.321 29.9776 534.511 30.9335C533.734 31.8895 532.859 32.6449 531.888 33.2C530.948 33.755 530.009 34.1713 529.07 34.4488C528.163 34.7573 527.305 34.9423 526.495 35.0038C525.685 35.0963 525.053 35.1426 524.6 35.1426C522.754 35.1426 520.972 34.9113 519.256 34.4488C517.539 34.0173 516.033 33.3081 514.737 32.3211C513.442 31.3344 512.405 30.0547 511.628 28.4822C510.851 26.9096 510.462 24.9978 510.462 22.7468V17.5203V12.7099C510.462 11.2298 510.447 9.90384 510.418 8.73214C510.418 7.52954 510.403 6.55823 510.373 5.81818C510.344 5.13979 510.166 4.67726 509.839 4.43061C509.515 4.18411 509.191 3.98359 508.867 3.82904L508.912 3.59806C509.074 3.62626 509.333 3.65699 509.69 3.69025C510.078 3.71845 510.467 3.74918 510.856 3.78243C511.277 3.78243 511.682 3.79653 512.07 3.82473H513.819C514.208 3.79653 514.613 3.78243 515.034 3.78243C515.455 3.75423 515.844 3.7235 516.2 3.69025C516.588 3.66204 516.864 3.63132 517.025 3.59806L517.07 3.82904C516.714 3.98303 516.374 4.18355 516.05 4.43061C515.758 4.6771 515.596 5.13963 515.563 5.81818C515.534 6.55823 515.502 7.52954 515.467 8.73214V22.7468C515.467 26.1078 516.293 28.59 517.944 30.1935C519.596 31.7969 522.042 32.5986 525.281 32.5986C526.22 32.5986 527.289 32.4906 528.487 32.2746C529.686 32.0281 530.803 31.5347 531.839 30.7945C532.908 30.0544 533.799 29.0061 534.512 27.6493C535.256 26.2925 535.629 24.4887 535.629 22.2377C535.629 19.8017 535.614 17.7204 535.585 15.9936C535.585 14.236 535.57 12.7405 535.54 11.5071C535.54 10.2428 535.525 9.16358 535.496 8.26933C535.466 7.37514 535.434 6.55801 535.399 5.81795C535.369 5.13955 535.191 4.67702 534.865 4.43037C534.541 4.18387 534.217 3.98334 533.893 3.82876L533.937 3.59782C534.294 3.65928 534.698 3.72104 535.152 3.78311C535.605 3.81131 536.026 3.82541 536.415 3.82541C536.771 3.82541 537.176 3.81131 537.63 3.78311C538.116 3.72165 538.537 3.65989 538.893 3.59782L538.924 3.82908ZM574.178 12.2934L573.886 12.3855C572.753 10.042 571.133 8.17651 569.028 6.78893C566.955 5.40133 564.348 4.70752 561.206 4.70752C559.457 4.70752 557.789 5.06211 556.202 5.77129C554.615 6.44972 553.222 7.42104 552.023 8.68525C550.857 9.91865 549.918 11.4142 549.206 13.1718C548.493 14.9294 548.137 16.8721 548.137 18.9997C548.137 21.1273 548.493 23.0699 549.206 24.8275C549.918 26.5851 550.858 28.096 552.024 29.3603C553.222 30.5937 554.615 31.5496 556.202 32.228C557.789 32.9063 559.457 33.2455 561.206 33.2455C564.315 33.2455 566.842 32.783 568.785 31.8579C570.761 30.9021 572.429 29.4528 573.789 27.5102L574.081 27.6024L573.984 30.5626C573.239 31.3026 572.38 31.9656 571.409 32.5514C570.437 33.1064 569.384 33.5844 568.251 33.9853C567.15 34.3553 566 34.6328 564.801 34.8178C563.603 35.0338 562.405 35.1419 561.206 35.1419C558.712 35.1419 556.332 34.7564 554.064 33.9855C551.797 33.2146 549.805 32.1354 548.088 30.7478C546.372 29.3294 545.011 27.6335 544.007 25.66C543.003 23.6557 542.501 21.4356 542.501 18.9996C542.501 16.5636 543.003 14.3589 544.007 12.3855C545.011 10.3811 546.372 8.66976 548.088 7.25138C549.805 5.83294 551.797 4.7537 554.064 4.01365C556.332 3.24275 558.712 2.8573 561.206 2.8573C562.405 2.8573 563.603 2.94981 564.801 3.13482C566 3.31983 567.15 3.61277 568.251 4.01365C569.384 4.38368 570.437 4.86163 571.409 5.44753C572.38 6.00256 573.239 6.65009 573.984 7.39013L574.178 12.2934ZM625.437 34.356C625.275 34.3278 625 34.297 624.612 34.2638C624.256 34.2638 623.867 34.2497 623.446 34.2215C623.024 34.2215 622.619 34.2074 622.231 34.1792H619.316C618.928 34.2074 618.539 34.2381 618.15 34.2714C617.794 34.2996 617.519 34.3303 617.325 34.3635L617.28 34.1782C617.604 34.0242 617.928 33.8237 618.252 33.5766C618.576 33.3302 618.754 32.8676 618.786 32.1891C618.816 31.449 618.83 30.6782 618.83 29.8764C618.86 29.0747 618.875 28.165 618.875 27.1475V23.6785V19.007V14.3355V10.8203C618.875 9.80269 618.86 8.90846 618.83 8.13756C618.83 7.33585 618.816 6.56497 618.786 5.82493C618.756 5.14653 618.578 4.68401 618.252 4.43735C617.928 4.15984 617.604 3.94407 617.28 3.79005L617.325 3.6048C617.519 3.66626 617.794 3.71251 618.15 3.74356C618.539 3.74356 618.928 3.75766 619.316 3.78586C619.737 3.81406 620.142 3.82817 620.531 3.82817H622.231C622.62 3.79996 623.025 3.78586 623.446 3.78586C623.867 3.75766 624.256 3.72693 624.612 3.69368C625 3.66548 625.275 3.63475 625.437 3.60149L625.482 3.78682C625.126 3.94081 624.786 4.15656 624.461 4.43408C624.17 4.68057 624.008 5.1431 623.975 5.82166C623.946 6.5617 623.913 7.33257 623.878 8.13429V29.8732C623.908 30.6749 623.94 31.4458 623.975 32.1858C624.005 32.8642 624.167 33.3267 624.461 33.5734C624.786 33.8199 625.126 34.0204 625.482 34.1749L625.437 34.356Z" fill="white"/>
</g>
<defs>
<clipPath id="clip0_8214_36">
<rect width="91" height="38" fill="white" transform="translate(272.482)"/>
</clipPath>
<clipPath id="clip1_8214_36">
<rect width="156" height="36" fill="white" transform="translate(469.482 1)"/>
</clipPath>
</defs>
</svg>
