<svg width="508" height="34" viewBox="0 0 508 34" fill="none" xmlns="http://www.w3.org/2000/svg">
<g clip-path="url(#clip0_8214_37)">
<path fill-rule="evenodd" clip-rule="evenodd" d="M0.481689 1.90175L3.41386 5.20848V29.4106L1.24066 32.5774L14.5501 32.5978L12.1512 29.6839L11.9021 20.9679L24.7353 21.0375C28.6251 19.7425 32.6238 16.9815 32.8159 11.3996C32.7545 5.99032 29.452 2.52086 25.6177 1.83061L0.481689 1.90175ZM11.4265 3.44953V18.9977L21.2728 19.0689C23.5131 17.2623 25.2115 15.8787 25.1436 11.5411C25.1115 8.00433 24.3649 4.92011 21.0689 3.45029L11.4265 3.44953ZM38.9753 1.7254L41.9075 5.03289V29.2351L39.7343 32.4033L53.043 32.4222L50.6441 29.5083L50.395 20.7923H50.4483L64.1982 32.5206L75.6091 32.4275L65.1946 23.4193H56.5004L53.436 20.8089L63.2282 20.8619C67.118 19.5669 71.1159 16.8059 71.3088 11.224C71.2482 5.81548 67.9456 2.34527 64.1106 1.65577L38.9753 1.7254ZM49.9194 3.27318V18.8214L59.7657 18.8925C62.0068 17.0859 63.7044 15.7024 63.6365 11.364C63.6044 7.82798 62.8578 4.74301 59.5619 3.27318H49.9194ZM86.5949 1.69059H98.0708L113.009 29.4106C113.656 31.551 115.589 31.2869 116.88 32.2254H102.416L104.59 31.5457L104.454 29.4818L100.719 23.5011L88.0208 23.5722L85.3049 29.3418C85.2143 29.998 84.5123 30.496 85.0331 31.3111L86.0522 32.2958L79.805 32.155L82.5217 31.3111L92.7741 9.71181V8.23365L88.4423 2.45502L86.5949 1.69059ZM88.8236 21.5976L94.0977 11.6123L99.5888 21.5416L88.8236 21.5976ZM164.197 1.75113H175.672L190.611 29.4712C191.257 31.6116 193.191 31.3475 194.482 32.286H180.017L182.191 31.6048L182.055 29.5408L178.32 23.5616L165.622 23.6328L162.906 29.4008C162.815 30.0585 162.114 30.5565 162.634 31.3717L163.653 32.3563L157.407 32.2156L160.123 31.3717L170.376 9.77235V8.29345L166.044 2.51557L164.197 1.75113ZM166.425 21.6589L171.699 11.6736L177.191 21.6013L166.425 21.6589ZM120.849 1.40222L141.292 1.51499C147.875 3.05672 152.064 7.07868 153.363 14.0948L153.308 19.5669C152.108 25.8186 148.175 30.1319 141.238 32.3155L120.74 32.373L120.737 31.7107C123.853 31.4754 124.102 31.1196 124.11 29.2699V4.33506C124.075 2.96741 123.802 2.11594 120.794 2.02209L120.849 1.40222ZM132.469 3.53581L132.45 30.5134C135.146 30.5225 137.485 30.7753 138.806 30.1009C141.801 28.7333 143.191 26.633 143.319 24.6598L143.247 8.73016C143.248 6.1818 140.482 4.38274 138.885 3.91425C137.743 3.49116 135.465 3.47375 132.469 3.53581Z" fill="white" stroke="white" stroke-width="1.02419" stroke-miterlimit="2.613"/>
</g>
<path fill-rule="evenodd" clip-rule="evenodd" d="M317.13 30.4522C309.891 30.4522 303.712 23.8867 303.712 16.7255C303.712 9.59072 309.762 2.89479 317.078 2.89479C321.887 2.89479 325.35 5.22146 328.168 8.86674H331.71C330.65 6.95346 329.512 5.19603 327.78 3.82545C324.807 1.42142 320.955 0 317.13 0C307.952 0 300.482 7.57464 300.482 16.7C300.482 25.8508 308.056 33.3481 317.182 33.3481C320.904 33.3481 324.55 31.9786 327.471 29.6774C329.307 28.204 330.599 26.2907 331.84 24.3255H328.299C325.506 27.9708 321.939 30.4522 317.13 30.4522ZM353.839 13.0028C351.616 10.1334 348.591 8.32404 344.843 8.32404C338.122 8.32404 332.59 13.7798 332.59 20.5012C332.59 27.2214 338.148 32.728 344.843 32.728C348.747 32.728 351.46 31.0988 353.839 28.1001V32.1842H356.76V8.89216H353.839V13.0028ZM344.688 30.0388C339.543 30.0388 335.484 25.5668 335.484 20.5266C335.484 15.5107 339.518 11.0132 344.688 11.0132C349.832 11.0132 353.839 15.5118 353.839 20.5266C353.839 25.5668 349.806 30.0388 344.688 30.0388ZM360.302 32.1842H363.431V0.670921H360.302V32.1842ZM375.244 28.487L367.334 8.89216H364.231L373.719 32.1842H376.873L386.335 8.89216H383.284L375.244 28.487ZM387.627 32.1842H390.755V8.89216H387.627V32.1842ZM387.627 5.89348H390.755V0.670921H387.627V5.89348ZM404.224 8.32293C401.277 8.32293 399.183 9.87478 397.244 11.9428V8.89216H394.348V32.1842H397.425V17.991C397.399 14.2429 400.501 11.0121 404.275 11.0121C409.005 11.0121 411.383 15.1228 411.383 19.3627V32.1853H414.278V19.3627C414.279 13.3134 410.739 8.32293 404.224 8.32293ZM443.311 0.670921L429.093 18.7415V0.670921H426.017V32.1842H429.093V23.5242L433.126 18.5094L443.389 32.1842H447.294L435.09 16.0269L447.294 0.670921H443.311ZM448.43 32.1842H451.482V0.670921H448.43V32.1842ZM476.738 14.7602C474.618 10.8043 470.378 8.32293 465.905 8.32293C459.236 8.32293 453.599 13.8815 453.599 20.5509C453.599 27.2711 459.287 32.7269 465.959 32.7269C469.137 32.7269 472.267 31.4602 474.566 29.2629C475.963 27.9443 476.79 26.2896 477.538 24.5576H474.256C472.601 27.7895 469.679 30.0377 465.904 30.0377C463.605 30.0377 461.355 29.107 459.65 27.5298C457.89 25.9282 457.115 23.9619 456.778 21.6363H478.263C478.264 19.2068 477.927 16.8802 476.738 14.7602ZM456.883 18.9482C457.816 14.5801 461.252 11.0121 465.959 11.0121C469.914 11.0121 474.154 13.4427 475.084 18.9482H456.883ZM480.539 32.1842H483.614V8.89216H480.539V32.1842ZM480.539 5.99738H483.614V0.670921H480.539V5.99738ZM497.136 8.32293C494.135 8.32293 492.042 9.87478 490.077 11.9428V8.89216H487.13V32.1842H490.232V17.991C490.207 14.2175 493.387 11.0121 497.186 11.0121C501.892 11.0121 504.375 15.1228 504.375 19.3627V32.1853H507.27V19.3627C507.27 13.3134 503.675 8.32293 497.136 8.32293Z" fill="white"/>
<defs>
<clipPath id="clip0_8214_37">
<rect width="194" height="32" fill="white" transform="translate(0.481689 1)"/>
</clipPath>
</defs>
</svg>
